<svg data-v-0dd9719b="" version="1.0" xmlns="http://www.w3.org/2000/svg" xmlns:xlink="http://www.w3.org/1999/xlink" width="100%" height="100%" viewBox="0 0 340.000000 250.000000" preserveAspectRatio="xMidYMid meet" color-interpolation-filters="sRGB" style="margin: auto;"> <rect data-v-0dd9719b="" x="0" y="0" width="100%" height="100%" fill="#feffff" fill-opacity="1" class="background"></rect> <rect data-v-0dd9719b="" x="0" y="0" width="100%" height="100%" fill="url(#watermark)" fill-opacity="1" class="watermarklayer"></rect> <g data-v-0dd9719b="" fill="#0b5394" class="iconlinesvg-g iconlinesvg" transform="translate(83.88323736190796,92.90816116333008)"><g class="tp-name" transform="translate(0,0)"><g transform="translate(0, 0)"><g data-gra="path-name" fill="#0b5394" transform="scale(1)"><path d="M37.06-18.00L37.06-48.44L43.68-48.44L43.68-17.21Q42.88 0.26 23.82 0.79L23.82 0.79Q6.09 0.26 5.29-16.15L5.29-16.15L5.29-48.44L11.91-48.44L11.91-18.00Q12.18-4.76 24.09-4.50L24.09-4.50Q37.06-4.76 37.06-18.00L37.06-18.00Z" transform="translate(-5.2941176470588225, 48.441176470588225)"></path></g></g><g transform="translate(42, 2.702770273245079)"><g><g class="imagesvg"><g><rect fill="#0b5394" fill-opacity="0" stroke-width="2" x="0" y="0" width="59.92579227262855" height="43.82975357115689" class="image-rect"></rect> <svg x="0" y="0" width="59.92579227262855" height="43.82975357115689" filtersec="colorsb1832955669" class="image-svg-svg primary" style="overflow: visible;"><svg xmlns="http://www.w3.org/2000/svg" viewBox="0.4500000476837158 0.0008652210235595703 99.1100082397461 72.4891357421875"><path d="M99.04 67.45L74.48 18.3c-.33-.61-.85-1.13-1.51-1.46-1.6-.8-3.58-.14-4.38 1.46L58.22 39.03 39.66 1.85c-.33-.66-.85-1.18-1.51-1.51-1.6-.8-3.58-.14-4.38 1.51L.97 67.45c-.33.52-.52 1.13-.52 1.74 0 1.84 1.46 3.3 3.3 3.3h92.51c1.79 0 3.3-1.46 3.3-3.3 0-.61-.19-1.22-.52-1.74zM40.83 34.27l-5.33-6.22-9 2.97 10.18-20.41L47.9 33l-7.07 1.27zm33.51 10.89l-3.68-4.85-4.85-1.79 5.7-11.4 6.65 13.29-3.82 4.75z" fill="#0b5394"></path></svg></svg> <!----></g></g></g></g><g transform="translate(105, 0)"><g data-gra="path-name" fill="#0b5394" transform="scale(1)"><path d="M28.59-11.12L28.59-11.12L34.41-11.12Q33.35-5.03 28.06-1.32L28.06-1.32Q25.15 0.53 18.53 0.53L18.53 0.53Q3.44 0 2.65-16.68L2.65-16.68Q3.18-36.00 19.59-36.53L19.59-36.53Q34.68-36.26 34.94-15.62L34.94-15.62L9.00-15.62Q9.00-3.97 19.32-3.97L19.32-3.97Q26.74-4.50 28.59-11.12ZM9.00-20.38L9.00-20.38L28.85-20.38Q28.06-30.97 18.79-30.97L18.79-30.97Q10.06-30.18 9.00-20.38Z" transform="translate(-2.6470588235294112, 48.441176470588225)"></path></g></g><g transform="translate(141, 0)"><g data-gra="path-name" fill="#0b5394" transform="scale(1)"><path d="M27.79-48.44L33.62-48.44L33.62 0L28.06 0L28.06-4.76Q24.88 0.53 18.00 0.53L18.00 0.53Q3.18 0 2.38-18.79L2.38-18.79Q3.18-35.74 17.21-36.53L17.21-36.53Q22.76-36.53 27.26-31.24L27.26-31.24Q27.53-30.71 27.79-30.44L27.79-30.44L27.79-30.71L27.79-48.44ZM8.47-17.74L8.47-17.74Q9.00-4.50 18.00-3.97L18.00-3.97Q27.53-5.03 27.79-15.88L27.79-15.88Q27.79-30.97 18.26-30.97L18.26-30.97Q8.21-30.97 8.47-17.74Z" transform="translate(-2.38235294117647, 48.441176470588225)"></path></g></g></g> <g data-gra="path-slogan" fill-rule="" class="tp-slogan" fill="#0b5394" transform="translate(5,55.22999954223633)"><rect x="0" height="1" y="3.9750003814697266" width="33.52088165283203"></rect> <rect height="1" y="3.9750003814697266" width="33.52088165283203" x="128.72087860107422"></rect> <g transform="translate(36.52088165283203,0)"><g transform="scale(1)"><path d="M4.41 0L0.94 0L0.94-8.58L4.45-8.58Q7.92-8.39 8.06-4.41L8.06-4.41Q7.88-0.09 4.41 0L4.41 0ZM4.27-7.64L2.11-7.64L2.11-0.98L4.36-0.98Q6.80-1.13 6.89-4.31L6.89-4.31Q6.84-7.55 4.27-7.64L4.27-7.64ZM10.83-1.03L15.98-1.03L15.98 0L9.66 0L9.66-8.58L15.89-8.58L15.89-7.59L10.83-7.59L10.83-4.92L15.52-4.92L15.52-3.89L10.83-3.89L10.83-1.03ZM18.14-8.58L20.58-1.27L23.06-8.58L24.38-8.58L21.23 0L19.97 0L16.83-8.58L18.14-8.58ZM26.77-1.03L31.92-1.03L31.92 0L25.59 0L25.59-8.58L31.83-8.58L31.83-7.59L26.77-7.59L26.77-4.92L31.45-4.92L31.45-3.89L26.77-3.89L26.77-1.03ZM33.42-8.58L34.59-8.58L34.59-1.03L38.95-1.03L38.95 0L33.42 0L33.42-8.58ZM46.88-4.27L46.88-4.27Q46.69-7.64 43.88-7.83L43.88-7.83Q41.02-7.69 40.88-4.27L40.88-4.27Q41.02-0.94 43.88-0.80L43.88-0.80Q46.69-0.98 46.88-4.27ZM48.05-4.27L48.05-4.27Q47.77 0 43.88 0.14L43.88 0.14Q39.94 0 39.66-4.27L39.66-4.27Q39.89-8.72 43.88-8.81L43.88-8.81Q47.77-8.67 48.05-4.27ZM53.06-7.64L50.72-7.64L50.72-4.64L53.02-4.64Q54.80-4.64 54.80-6.19L54.80-6.19Q54.80-7.59 53.06-7.64L53.06-7.64ZM53.44-3.61L50.72-3.61L50.72 0L49.55 0L49.55-8.58L53.44-8.58Q55.88-8.48 55.97-6.19L55.97-6.19Q55.83-3.70 53.44-3.61L53.44-3.61ZM65.63-8.58L65.63 0L64.50 0L64.50-5.06Q64.50-5.77 64.50-7.22L64.50-7.22L62.06 0L60.89 0L58.50-7.22L58.45-7.22Q58.45-6.70 58.50-5.67L58.50-5.67Q58.50-5.16 58.50-5.06L58.50-5.06L58.50 0L57.33 0L57.33-8.58L59.02-8.58L61.50-1.31L63.94-8.58L65.63-8.58ZM68.63-1.03L73.78-1.03L73.78 0L67.45 0L67.45-8.58L73.69-8.58L73.69-7.59L68.63-7.59L68.63-4.92L73.31-4.92L73.31-3.89L68.63-3.89L68.63-1.03ZM76.69-8.58L81-1.64L81-8.58L82.13-8.58L82.13 0L80.81 0L76.45-6.94L76.41-6.94L76.41 0L75.28 0L75.28-8.58L76.69-8.58ZM86.11-7.59L83.20-7.59L83.20-8.58L90.14-8.58L90.14-7.59L87.23-7.59L87.23 0L86.11 0L86.11-7.59Z" transform="translate(-0.9375, 8.8125)"></path></g></g></g></g><defs v-gra="od"></defs></svg>